# xmcd
#
# Track frame offsets: 
#        150
#        29883
#        53338
#        68965
#        85965
#        106570
#        131343
#        154250
#        167000
#        192895
#        208108
#
# Disc length: 2962 seconds
#
# Revision: 0
# Processed by: cddbd v1.5.2PL0 Copyright (c) Steve Scherf et al.
# Submitted via: ExactAudioCopy v0.95b4
#
DISCID=8f0b900b
DTITLE=Russell Malone - Heartstrings
DYEAR=2001
DGENRE=Jazz
TTITLE0=Heartstrings
TTITLE1=How About Me
TTITLE2=Loved Ones
TTITLE3=You Needed Me
TTITLE4=Handful Of Stars
TTITLE5=Wind In The Willow
TTITLE6=Why Try To Change Me Now
TTITLE7=The Bad And The Beautiful
TTITLE8=Guess I'll Hang My Tears Out Ot Dry
TTITLE9=What A Friend We Have In Jesus
TTITLE10=Flowers For Emmett Till (Bonus Track)
EXTD=
EXTT0=
EXTT1=
EXTT2=
EXTT3=
EXTT4=
EXTT5=
EXTT6=
EXTT7=
EXTT8=
EXTT9=
EXTT10=
PLAYORDER=
